<svg width="26" height="26" viewBox="0 0 26 26" fill="none" xmlns="http://www.w3.org/2000/svg">
<path d="M24.0459 8.98446L11.3564 21.674C11.0599 21.9703 10.6579 22.1368 10.2387 22.1368C9.81947 22.1368 9.41743 21.9703 9.12091 21.674L2.04284 14.5584C1.74683 14.2619 1.58057 13.8601 1.58057 13.4411C1.58057 13.0222 1.74683 12.6203 2.04284 12.3239L4.01941 10.3473C4.31576 10.0522 4.71695 9.8865 5.13518 9.8865C5.5534 9.8865 5.9546 10.0522 6.25095 10.3473L10.2782 14.253L19.8408 4.80799C20.1372 4.51257 20.5386 4.34669 20.9571 4.34669C21.3755 4.34669 21.7769 4.51257 22.0733 4.80799L24.045 6.73909C24.1932 6.88602 24.3109 7.06086 24.3913 7.25351C24.4717 7.44617 24.5131 7.65283 24.5132 7.86157C24.5133 8.07031 24.472 8.27701 24.3918 8.46973C24.3116 8.66246 24.1941 8.8374 24.0459 8.98446Z" fill="url(#paint0_linear_765_8612)"/>
<defs>
<linearGradient id="paint0_linear_765_8612" x1="22.6647" y1="4.21698" x2="8.43342" y2="22.1378" gradientUnits="userSpaceOnUse">
<stop stop-color="#6F53FD"/>
<stop offset="1" stop-color="#745EFF"/>
</linearGradient>
</defs>
</svg>
